<svg xmlns="http://www.w3.org/2000/svg" direction="ltr" width="4097.0165596762" height="3425.716933148821" viewBox="-6953.820267107439 3916.984856522173 4097.0165596762 3425.716933148821" stroke-linecap="round" stroke-linejoin="round" data-color-mode="light" class="tl-container tl-theme__force-sRGB tl-theme__light" style="background-color: transparent;"><defs/><g transform="matrix(1, 0, 0, 1, -6921.8203, 3948.9848)" opacity="1"><path fill="#ecdcf2" d="M 0 1680.8585 C 0 752.546 902.8215 0 2016.5083 0 C 3130.195 0 4033.0165 752.546 4033.0166 1680.8585 C 4033.0165 2609.171 3130.195 3361.717 2016.5083 3361.717 C 902.8215 3361.717 0 2609.171 0 1680.8585"/><path stroke-width="10" d="M -3.151 1679.5942 C -1.3822 753.597 901.4393 1.051 2015.126 1.051 C 3127.9361 -0.2027 4030.7576 752.3433 4030.7576 1680.6558 C 4035.1637 2606.8273 3132.3422 3359.3732 2018.6554 3359.3732 C 899.6706 3360.4527 -3.1509 2607.9067 -3.151 1679.5942 M -1.4367 1680.6422 C -1.0405 752.89 901.781 0.344 2015.4678 0.344 C 3133.0541 0.5371 4035.8756 753.083 4035.8756 1681.3955 C 4030.1508 2610.4691 3127.3293 3363.0151 2013.6425 3363.0151 C 901.3849 3361.5007 -1.4366 2608.9547 -1.4367 1680.6422" fill="none" stroke="#ae3ec9"/></g><g transform="matrix(1, 0, 0, 1, -5372.5072, 5089.7666)" opacity="1"><g transform="scale(1)"><path d="M-0.954,6.8923 T-7.5722,5.6191 -25.129,0.6375 -50.0227,-9.416 -80.3197,-23.8941 -114.526,-40.7852 -150.2671,-57.6491 -186.0316,-73.1269 -221.5649,-87.3691 -255.3744,-100.2227 -285.7863,-111.2349 -311.5338,-120.4165 -332.0615,-127.7544 -348.0923,-133.2901 -360.7697,-137.7804 -371.5126,-141.881 -381.5932,-145.7601 -391.9498,-149.9218 -402.808,-154.5456 -414.0061,-159.6861 -425.447,-165.674 -436.9539,-172.3642 -448.4491,-179.5003 -459.9304,-187.0112 -471.2915,-194.7139 -482.1713,-202.7278 -492.0918,-211.1303 -500.9784,-219.3631 -509.0428,-227.1958 -516.2994,-234.8004 -522.7262,-242.2372 -528.2897,-249.3799 -532.9832,-255.7787 -538.6582,-263.2342 -544.8253,-272.1278 -549.7574,-281.0086 -554.0697,-289.065 -557.7444,-295.8242 -560.6401,-302.5359 -563.0582,-309.9941 -566.1925,-318.6828 -570.3144,-327.7488 -574.9761,-337.355 -578.9101,-345.756 -581.9847,-352.4961 -585.24,-359.9664 -588.3402,-367.3928 -591.2049,-374.3957 -593.853,-381.3105 -596.2621,-388.3212 -598.4926,-395.7385 -600.5886,-403.9291 -602.5687,-412.4812 -604.3844,-420.478 -605.9758,-427.6237 -608.0122,-437.2302 -610.4495,-450.1055 -613.1392,-463.5427 -615.6059,-474.0568 -617.4242,-481.8516 -619.1725,-490.1141 -620.8926,-498.8282 -622.4665,-508.1311 -623.7326,-517.9434 -624.755,-528.2465 -625.4554,-538.9498 -625.8379,-549.5257 -626.118,-559.4486 -626.4286,-568.2498 -626.9605,-578.5198 -627.6011,-589.513 -628.0872,-599.0213 -628.4139,-609.1198 -628.5245,-618.5245 -626.4316,-627.4314 -619.2714,-637.7341 -610.187,-645.7001 -602.0335,-650.0399 -593.9975,-653.1373 -586.1794,-655.2069 -578.7389,-656.6187 -571.6202,-657.8328 -564.1316,-658.7746 -556.6406,-659.3341 -549.6128,-659.6699 -540.5703,-660.009 -529.832,-660.3568 -519.6665,-660.5878 -509.5893,-660.7461 -499.936,-660.8804 -490.1866,-660.6361 -480.7812,-659.5346 -472.8732,-658.1545 -464.2498,-657.5277 -455.6573,-657.501 -446.7134,-657.4177 -435.0386,-657.6556 -421.6233,-659.648 -410.7241,-662.1228 -403.3132,-663.6521 -396.0488,-665.0243 -388.6078,-666.0888 -381.3478,-666.7354 -371.7242,-667.237 -361.0423,-667.6881 -352.3721,-668.0825 -343.4654,-668.4707 -335.2223,-668.71 -328.0071,-668.8067 -319.4438,-668.8182 -308.1767,-668.639 -298.1039,-668.3815 -290.425,-667.7812 -282.3644,-666.2807 -274.4358,-663.8443 -266.8891,-660.7849 -259.9873,-657.4603 -253.5836,-654.0817 -244.586,-649.8072 -232.4487,-644.6933 -222.2227,-640.5455 -213.5371,-636.6985 -203.7391,-631.9925 -193.6065,-627.0038 -183.6319,-622.3053 -173.7949,-618.0117 -163.8594,-613.584 -153.8162,-608.9409 -143.8322,-604.5392 -133.6049,-600.3377 -122.727,-595.8903 -111.4717,-591.1236 -100.1464,-586.2015 -88.7428,-581.0097 -77.4279,-575.3715 -66.7138,-569.6014 -57.0254,-564.1734 -48.4133,-559.1619 -40.7947,-554.4058 -34.1751,-549.7838 -28.4683,-545.2609 -21.5305,-539.8102 -13.1262,-533.9267 -5.0859,-528.3441 2.5639,-521.9958 10.1303,-514.4965 17.6579,-506.752 25.3054,-499.1257 33.7054,-491.0872 40.8997,-484.7971 46.8476,-480.3007 53.6617,-475.5696 61.1585,-470.6442 69.0723,-465.6327 77.0761,-460.6227 84.6285,-456.046 91.2841,-452.4137 99.1552,-448.6906 107.6578,-446.0429 115.8798,-445.4403 124.4939,-445.3453 134.348,-446.1688 145.9319,-445.8778 158.4583,-442.1655 171.7497,-435.9646 184.1634,-428.7853 194.4692,-422.1042 202.5284,-416.3999 208.9659,-411.6932 216.3667,-406.8927 225.0101,-401.9734 232.7774,-398.3024 240.6297,-394.8319 248.675,-390.3601 256.1461,-385.1918 263.7478,-379.2463 271.553,-372.754 279.398,-365.9069 287.0075,-359.28 293.9204,-353.6428 300.907,-348.5729 307.9767,-343.0954 314.7497,-336.3181 321.2852,-328.541 327.5514,-320.2364 332.8797,-312.1964 338.6413,-307.0436 346.1413,-305.5864 356.5386,-305.6322 366.6979,-306.4073 375.2903,-307.8664 385.8605,-309.306 397.7926,-310.5875 410.9272,-311.8319 425.2509,-312.7457 440.1601,-313.4908 455.3105,-314.4395 470.1603,-315.2523 484.1293,-315.9916 497.7985,-316.9484 511.768,-317.7574 525.9036,-318.2121 539.7424,-318.4623 552.7204,-318.5992 564.5936,-318.7785 575.6671,-319.2664 586.6504,-320.0125 598.2254,-320.6267 611.2076,-320.9778 626.0731,-321.1753 642.5063,-321.2865 659.758,-321.3492 676.5934,-321.3846 692.4053,-321.4045 707.4934,-321.4157 721.9154,-321.4219 735.6696,-321.4254 748.9687,-321.4273 761.4199,-321.4284 772.5043,-321.4871 782.6467,-321.3928 792.9694,-320.55 804.006,-319.1524 815.6857,-317.7549 828.1875,-316.3115 841.1274,-314.7688 853.9746,-312.9362 866.4712,-310.7367 878.1725,-308.4704 888.9375,-306.2288 898.5722,-304.0757 906.6936,-302.2274 915.8868,-299.8723 926.534,-296.6972 935.6623,-291.5548 943.564,-283.5795 951.4554,-274.416 959.569,-265.2109 968.0152,-256.5916 976.9628,-248.5325 985.8194,-240.9916 994.0736,-234.4686 1002.0625,-228.5042 1009.9498,-222.4803 1017.6025,-216.8551 1025.1093,-211.7415 1032.9001,-206.3282 1041.4525,-199.4102 1050.7843,-190.4135 1060.3387,-179.5462 1069.7024,-167.4187 1078.6085,-155.1885 1086.5306,-144.0093 1093.2383,-134.1901 1099.0312,-125.3774 1104.2444,-117.3202 1109.0337,-110.1468 1113.5479,-103.7588 1117.9023,-97.748 1123.8135,-91.1897 1131.8453,-85.2478 1141.7936,-80.583 1150.9434,-76.7951 1157.8232,-73.839 1164.4101,-70.9637 1170.8555,-67.9163 1177.1044,-64.5359 1184.7929,-59.891 1192.7104,-55.6337 1199.8042,-54.2526 1211.2759,-54.1025 1224.737,-54.9338 1238.8232,-58.186 1257.1275,-63.4963 1278.6034,-69.4342 1301.9983,-75.0811 1326.0282,-80.2404 1349.6635,-85.0859 1372.701,-89.7421 1395.4476,-94.1901 1417.9089,-98.3382 1439.8615,-102.0777 1461.0718,-105.2968 1481.8193,-107.9081 1502.3565,-109.7033 1522.0666,-110.7227 1540.3878,-111.2974 1557.3427,-111.6218 1573.1931,-111.8049 1588.5835,-111.9082 1604.0526,-111.9663 1619.6451,-111.9989 1635.3141,-112.0172 1650.6835,-112.0273 1665.2391,-112.0286 1679.1826,-111.4316 1692.6399,-109.36 1704.7997,-105.9598 1715.3473,-101.6138 1724.504,-96.5426 1732.252,-91.4993 1738.7531,-86.7871 1744.2851,-82.1948 1750.7971,-75.2532 1757.395,-66.612 1761.7112,-59.3683 1764.423,-52.0217 1767.0781,-44.1841 1770.329,-35.7351 1772.9905,-26.8946 1774.5654,-17.8636 1775.2978,-9.129 1775.5691,-1.5084 1775.7406,6.6552 1775.8719,16.0284 1775.9319,24.4552 1775.8256,32.3364 1774.8533,41.6031 1772.7916,50.5398 1770.1286,59.4017 1766.7725,68.2847 1762.8028,76.0996 1757.2371,84.3052 1750.0393,93.2443 1741.8668,103.0548 1734.5611,111.4903 1727.9095,117.9901 1719.1828,125.2025 1708.6579,133.2648 1696.2086,142.3958 1681.3594,152.3027 1664.7518,161.9892 1647.6308,170.4164 1631.0477,177.5372 1615.4976,183.6793 1600.717,188.8065 1586.2436,193.1562 1571.6296,197.1815 1555.9501,200.9714 1538.2123,204.7919 1518.0436,208.568 1496.0502,211.7268 1473.5437,214.2186 1451.5757,216.2609 1430.9692,218.0531 1412.5795,219.9827 1396.5795,222.7472 1382.4058,226.4894 1368.7288,230.8597 1354.4217,235.7666 1339.9199,241.22 1325.6429,247.067 1311.3674,252.9041 1296.9208,258.5622 1282.0318,263.9961 1266.8361,268.8613 1252.0353,272.9261 1238.6453,276.2282 1227.7703,278.8795 1219.4938,281.1653 1210.2413,284.7113 1199.029,290.7035 1190.5251,296.3377 1184.7858,300.4187 1176.4742,305.7298 1167.0098,310.3003 1159.0762,312.4399 1151.3179,314.0684 1144.2288,315.9379 1140.0396,325.9177 1139.8282,345.3879 1142.0257,369.4339 1145.403,397.3662 1148.6516,426.9911 1150.8542,456.7639 1152.0777,485.3022 1152.7503,512.5458 1153.117,538.1237 1153.3146,561.9068 1153.4191,584.6607 1153.4728,606.4809 1153.4648,627.7966 1153.098,649.6533 1151.7795,672.291 1149.4272,694.916 1146.3894,717.0657 1142.6774,739.2138 1137.9814,761.4109 1132.0554,783.563 1124.828,805.8884 1116.1354,828.072 1106.2448,849.2318 1095.8211,868.5803 1085.4692,885.5759 1075.6246,900.0076 1066.2675,912.4685 1057.1986,924.0143 1048.5336,935.3007 1040.303,946.3095 1032.3231,956.8792 1024.7719,966.8175 1017.6829,975.9035 1011.1974,984.2025 1005.6503,991.7554 1000.8813,998.436 995.7346,1005.9775 991.2927,1015.1455 988.3085,1023.937 984.2364,1034.2925 978.5225,1048.3233 972.0787,1064.3387 965.2797,1080.8099 958.366,1096.7804 951.7295,1111.456 945.8264,1124.3399 940.5523,1135.8452 935.3844,1146.6345 930.0834,1157.0155 924.7256,1167.2164 919.4421,1177.3356 914.4706,1187.2185 910.0097,1196.683 906.1445,1205.5807 902.288,1214.3926 897.4956,1223.9742 891.6274,1234.982 884.7238,1247.7761 876.9953,1261.9581 868.9922,1276.6669 861.0345,1291.1117 853.3967,1304.9031 846.1192,1317.9201 839.3378,1329.8998 833.131,1340.9214 827.0023,1351.4469 820.7184,1361.681 814.6064,1371.9357 808.7929,1382.8305 802.8548,1394.6378 796.5484,1407.4786 789.967,1421.8014 783.0369,1437.8603 775.7434,1455.3458 768.1964,1473.3864 760.4863,1491.2066 752.8701,1508.5121 745.6448,1524.6254 738.844,1539.1773 732.21,1552.5161 725.315,1564.7568 717.7822,1576.3738 709.662,1588.0966 700.0395,1601.8365 694.5781,1609.6348 A4.2096,4.2096 0 0 1 687.6819,1604.8052 T693.1434,1597.0069 702.7416,1583.3018 710.7218,1571.7924 717.9905,1560.6162 724.6751,1548.7621 731.2179,1535.6096 737.9636,1521.1774 745.1633,1505.1204 752.7584,1487.8625 760.4278,1470.1367 767.9712,1452.1025 775.305,1434.5199 782.3164,1418.2775 788.9864,1403.762 795.3246,1390.8501 801.3587,1378.8551 807.3593,1367.6172 813.5204,1357.2639 819.6943,1347.1956 825.7483,1336.7711 831.9465,1325.7259 838.6831,1313.7726 845.9096,1300.7726 853.493,1286.9767 861.3651,1272.545 869.2828,1257.795 876.8678,1243.6054 883.5789,1230.792 889.1486,1219.8328 893.7795,1210.4961 897.928,1201.8344 902.1934,1192.9368 906.8509,1183.394 911.8626,1173.3979 917.1119,1163.2439 922.3649,1153.1086 927.4854,1142.8977 932.4743,1132.205 937.59,1120.6467 943.2617,1107.7216 949.5406,1093.087 955.9795,1077.1491 962.1778,1060.619 967.856,1044.4072 972.5332,1030.1556 976.6771,1017.5158 981.0512,1007.5085 987.0064,999.5003 993.1849,992.4365 998.4635,986.197 1004.4587,978.8467 1011.0444,970.7133 1018.0681,961.7241 1025.6041,951.8057 1033.5602,941.2676 1041.8549,930.1752 1050.5778,918.8125 1059.541,907.406 1068.6809,895.2491 1078.2881,881.1828 1088.4152,864.5768 1098.6215,845.6582 1108.2974,824.9976 1116.8136,803.2943 1123.915,781.3856 1129.7339,759.6651 1134.3555,737.8208 1138.0223,715.9186 1141.0176,694.0406 1143.3259,671.804 1144.6095,649.5182 1144.9474,627.8009 1144.9182,606.5119 1144.8132,584.7134 1144.6382,561.9961 1144.3441,538.2711 1143.8457,512.7947 1142.9959,485.7293 1141.5405,457.5056 1139.029,428.1296 1135.3271,398.6975 1131.2824,370.5608 1128.1835,345.6037 1127.1534,326.1676 1129.5459,312.5985 1138.394,304.4854 1148.5843,301.1151 1158.6308,298.7802 1169.9948,294.5963 1177.7874,290.1622 1183.8485,286.1913 1190.2994,282.1291 1196.91,278.4965 1203.5326,275.6518 1210.1877,273.6496 1217.3439,272.1022 1225.8167,270.4433 1236.6358,268.0525 1249.8126,264.8067 1264.273,260.8439 1279.1446,256.0878 1293.8499,250.7221 1308.1806,245.1099 1322.4523,239.2737 1336.9558,233.3386 1351.6908,227.7983 1366.1698,222.8332 1380.2503,218.3478 1395.1236,214.4533 1411.6859,211.5964 1430.2358,209.6434 1450.7926,207.8473 1472.611,205.8087 1494.838,203.3378 1516.464,200.2175 1536.4044,196.4542 1553.9131,192.6447 1569.3145,188.8653 1583.7083,184.8203 1597.7925,180.4842 1612.1528,175.3487 1627.3624,169.1217 1643.3696,161.9597 1659.6595,153.5419 1675.3924,143.7815 1689.3213,133.6513 1700.832,124.0237 1710.0511,115.4099 1717.1287,108.0459 1724.6777,98.8374 1733.0374,87.6437 1740.0247,78.2319 1745.2366,70.9595 1749.4565,63.3115 1753.0565,54.1178 1755.5881,45.9073 1757.3251,39.0639 1758.3097,31.7783 1758.6662,24.4586 1758.7189,16.0494 1758.8096,6.7478 1758.8584,-1.1995 1758.7681,-8.3073 1758.381,-15.4362 1757.2032,-22.9159 1755.0873,-31.0631 1752.3361,-40.0144 1750.2756,-48.9346 1748.2384,-56.3201 1744.3955,-63.5876 1738.4659,-72.1259 1732.4285,-78.8857 1726.8291,-83.7779 1720.0226,-88.8971 1712.008,-93.7849 1702.4814,-97.878 1691.3274,-101.0626 1678.8093,-103.0268 1665.2388,-103.6061 1650.6895,-103.6034 1635.3246,-103.5914 1619.6637,-103.5706 1604.0856,-103.5346 1588.6419,-103.4717 1573.2923,-103.3622 1557.506,-103.1709 1540.6543,-102.8366 1522.505,-102.252 1503.1006,-101.2313 1482.8939,-99.4368 1462.3706,-96.81 1441.3295,-93.5542 1419.5176,-89.7515 1397.1781,-85.5049 1374.5306,-80.909 1351.5785,-76.0396 1328.1152,-70.9149 1304.4627,-65.4122 1281.6091,-59.317 1260.5753,-52.6984 1241.9918,-46.2372 1226.5303,-41.348 1211.4556,-38.9985 1198.9929,-38.7987 1191.4795,-40.1238 1184.7955,-43.1651 1177.2777,-48.0985 1167.6466,-54.0936 1158.9814,-58.6098 1152.5257,-61.4651 1145.8749,-64.3008 1139.1327,-67.0602 1129.9378,-71.5907 1119.4986,-78.9133 1112.8352,-85.8149 1108.8401,-91.6827 1104.8779,-98.1084 1100.759,-104.9823 1096.4037,-112.4927 1091.6486,-120.6113 1086.1144,-129.3006 1079.4387,-138.9449 1071.4983,-149.9591 1062.633,-161.8848 1053.5104,-173.4087 1044.3304,-183.4819 1035.3575,-191.6504 1027.0754,-198.0653 1019.3654,-203.5864 1011.7733,-209.1142 1004.1381,-215.0205 996.4504,-221.1293 988.4579,-227.3224 979.9852,-233.9805 970.7802,-241.4751 961.1938,-249.6409 952.0754,-258.2378 943.4567,-267.0058 935.4042,-275.0731 928.7339,-281.2753 921.828,-285.5735 912.6942,-289.5526 904.1512,-292.9137 896.4293,-295.3661 887.1491,-297.8331 876.5647,-300.1207 865.0026,-302.3297 852.782,-304.4424 840.1319,-306.1869 827.227,-307.6417 814.6932,-308.9734 802.8982,-310.2259 792.1427,-311.524 782.4115,-312.5453 772.5045,-312.9511 761.4207,-313.0084 748.9701,-313.007 735.6719,-313.0046 721.9193,-313.0004 707.5,-312.9932 692.4163,-312.9808 676.6116,-312.9591 659.7896,-312.9213 642.5652,-312.8553 626.189,-312.7401 611.4439,-312.539 598.6817,-312.1887 587.2287,-311.5687 576.0515,-310.7964 564.7363,-310.276 552.8239,-310.0637 539.9153,-309.8837 526.2064,-309.5763 512.3099,-309.0499 498.466,-308.1323 484.6762,-307.0082 470.754,-306.0532 456.0327,-304.9481 440.8364,-303.5855 426.2067,-302.3071 412.4281,-300.6932 399.7832,-298.5002 388.5876,-296.0043 378.6298,-293.2963 369.3698,-290.6628 357.4279,-288.7175 345.8247,-288.0082 337.3129,-288.4743 329.9098,-290.6036 324.2536,-295.054 319.3397,-302.0271 314.057,-310.0891 308.4281,-317.3173 302.3827,-324.5091 296.2586,-331.011 290.0822,-336.2763 283.7796,-341.3136 276.7239,-347.2876 268.8724,-354.1663 261.3322,-360.8201 253.9572,-367.1338 246.9172,-372.9364 240.6606,-377.8097 234.3238,-381.9003 226.5364,-386.1077 218.2396,-391.0439 209.5183,-397.3182 202.264,-403.1059 196.4783,-407.925 188.9767,-413.2168 178.92,-419.0408 167.1177,-424.8946 155.4212,-429.2984 142.9564,-431.1177 132.2186,-430.8327 124.0549,-430.5911 114.554,-431.2852 103.9238,-433.1262 93.5375,-437.2472 85.3654,-441.7881 78.506,-445.7158 70.8682,-450.1502 62.6561,-454.7524 54.2736,-459.3471 46.1226,-463.9491 38.4301,-468.6067 31.5757,-473.2852 25.6417,-477.9386 18.7573,-484.3909 10.7401,-492.3964 3.0878,-500.3924 -3.9805,-508.1281 -10.3107,-514.5979 -16.9775,-520.5253 -24.8989,-527.079 -33.494,-534.965 -40.3794,-541.7092 -46.1157,-546.5094 -53.068,-551.5192 -61.261,-556.7034 -70.7367,-562.1212 -81.2179,-567.7407 -92.2724,-573.2107 -103.5566,-578.29 -114.8265,-583.1081 -126.0032,-587.7323 -136.9434,-592.0535 -147.416,-596.1866 -157.6077,-600.442 -167.6306,-604.7502 -177.5758,-608.8188 -187.7645,-612.7606 -198.0783,-616.8409 -208.4301,-620.8732 -218.3604,-624.5051 -227.138,-627.6045 -237.7332,-631.6023 -247.4127,-635.5351 -253.8301,-638.3848 -260.1606,-641.4913 -269.2429,-645.888 -278.5603,-649.7497 -288.1684,-651.7703 -298.1081,-652.6184 -308.1766,-652.361 -319.4436,-652.1816 -328.0062,-652.1928 -335.2193,-652.2885 -343.4355,-652.5171 -352.2564,-652.8459 -360.7757,-653.0639 -371.0779,-652.995 -383.3335,-652.2955 -393.2389,-651.0154 -400.1786,-649.5387 -407.1195,-647.8779 -414.4418,-645.8154 -422.3246,-643.48 -430.4717,-641.6255 -440.9323,-640.7158 -451.5854,-640.4902 -460.8341,-640.6052 -470.0124,-641.1901 -478.7603,-642.7851 -486.9816,-644.5673 -495.348,-645.333 -504.7977,-645.5122 -514.596,-645.6437 -524.6615,-645.7854 -534.7747,-645.9284 -546.0649,-645.8905 -558.9989,-645.2829 -569.2462,-644.1742 -576.1713,-642.9475 -585.8215,-640.641 -595.2015,-637.4755 -603.3217,-631.8936 -610.6246,-624.971 -613.5823,-618.3173 -614.3386,-609.1276 -614.6496,-599.0472 -615.087,-589.5763 -615.5767,-578.6487 -615.8666,-568.4588 -615.8242,-559.7712 -615.483,-550.0715 -614.7723,-539.9364 -613.5489,-529.6773 -611.9988,-519.7455 -610.3489,-510.4814 -608.402,-501.5616 -606.3501,-493.0384 -604.4007,-485.0686 -602.4016,-477.3889 -600.4607,-469.9365 -598.2298,-459.2877 -595.9075,-446.1036 -593.7144,-433.4868 -591.736,-423.4645 -589.822,-415.7227 -587.5484,-407.5419 -585.2662,-399.8712 -583.029,-392.9455 -580.7213,-386.4542 -578.1157,-379.9643 -575.1542,-373.2778 -571.846,-366.3544 -568.1853,-359.3079 -563.2835,-349.9941 -558.0064,-339.6254 -553.482,-330.5807 -549.7152,-320.5356 -547.3718,-311.3663 -544.9339,-303.5969 -541.3955,-295.3122 -537.6447,-286.7777 -534.0497,-278.4033 -529.2617,-269.5137 -524.4291,-261.5188 -520.4793,-255.062 -515.6801,-248.0381 -509.9187,-240.7261 -503.1199,-233.2561 -495.2482,-225.5396 -486.6368,-217.5477 -477.1693,-209.5091 -466.5581,-201.6966 -455.3109,-194.077 -443.9953,-186.6817 -432.7035,-179.6816 -421.5244,-173.1882 -410.4722,-167.4179 -399.4788,-162.4047 -388.7522,-157.8821 -378.4925,-153.7511 -368.4687,-149.8294 -357.9264,-145.7864 -345.3264,-141.3557 -329.1914,-135.8271 -308.6455,-128.5425 -282.8408,-119.4226 -252.2636,-108.4631 -218.255,-95.6896 -182.424,-81.5416 -146.2817,-66.1982 -110.2399,-49.6113 -75.9808,-33.2639 -46.1496,-19.7234 -22.5244,-10.9971 -5.7462,-7.4625 0.954,-6.8923 A6.958,6.958 0 0 1 -0.954,6.8923 Z" stroke-linecap="round" fill="#1d1d1d"/></g></g><g transform="matrix(1, 0, 0, 1, -4681.3793, 6696.9927)" opacity="1"><g transform="scale(1)"><path d="M5.0886,4.2191 T0.7317,8.9846 -8.6982,19.0306 -19.1582,29.5373 -30.0623,40.1854 -41.5348,51.2798 -54.0737,62.5814 -67.9239,74.1113 -83.126,86.0959 -98.9673,97.9863 -114.3071,109.3542 -128.307,120.1534 -140.0821,130.0453 -149.014,138.5265 -154.9474,145.4993 -164.1628,153.5805 -179.3293,159.3607 -197.2576,160.5961 -218.9989,161.1861 -244.4895,161.4863 -271.2688,161.6346 -297.1395,161.7032 -321.5655,161.731 -344.5321,161.7387 -366.842,161.7372 -389.1543,161.7321 -410.8461,161.7262 -431.2893,161.5194 -450.2481,160.904 -467.2411,159.9145 -482.0578,158.2466 -495.0171,156.0211 -506.6247,153.9495 -517.2589,152.0112 -526.8086,150.2932 -534.7815,149.3067 -543.4879,148.999 -553.1809,149.1852 -565.726,149.1508 -582.4528,148.298 -601.3827,146.4835 -622.0447,143.6005 -642.0078,140.3632 -659.5697,137.6254 -674.2644,135.7127 -686.538,134.5319 -696.944,133.9629 -705.6107,133.8826 -715.1096,134.2109 -726.0574,134.7284 -736.4557,135.1788 -746.4185,135.5474 -756.0834,135.8386 -766.2948,136.0286 -778.566,135.5539 -789.0384,134.6329 -796.5456,133.8111 -804.7289,132.7547 -813.4588,131.4326 -822.2404,130.0515 -830.943,128.6879 -839.4114,127.3665 -847.524,126.0719 -855.5069,124.5427 -863.3789,122.6931 -871.2654,120.605 -879.3721,118.3301 -887.6322,115.957 -895.8356,113.5011 -903.8011,110.6699 -911.6338,107.0862 -919.5181,102.8774 -927.6822,97.9816 -936.059,92.4207 -944.3714,86.9089 -952.4744,81.8781 -960.3774,77.057 -968.2631,72.0441 -976.0663,66.9867 -983.6319,62.0951 -990.8857,57.3052 -997.8014,52.5926 -1004.3613,47.9165 -1010.6309,42.9436 -1016.8715,37.2049 -1023.2838,30.7662 -1030.0122,23.5354 -1036.6901,15.4767 -1042.7068,7.0383 -1048.0229,-1.8237 -1052.8282,-10.8065 -1057.1675,-19.6274 -1060.9251,-28.8161 -1064.0394,-38.2273 -1066.4727,-47.5055 -1068.0934,-56.9433 -1069.0409,-66.2915 -1069.6329,-75.117 -1070.0158,-83.6693 -1069.8844,-92.539 -1068.7993,-101.9863 -1066.9084,-111.828 -1064.6646,-121.8014 -1062.444,-131.538 -1060.4311,-140.8855 -1058.7812,-149.8192 -1057.3994,-158.6958 -1055.9187,-167.7577 -1054.2706,-176.6968 -1052.76,-185.0641 -1051.5117,-194.9825 -1050.4854,-204.7309 -1048.6843,-212.0184 -1046.9818,-220.2889 -1046.1892,-231.9685 -1045.157,-246.8118 -1043.6999,-262.8495 -1041.8128,-278.3839 -1039.733,-292.4983 -1037.5571,-305.1505 -1035.6143,-316.3039 -1034.1031,-326.5124 -1032.6338,-336.5898 -1030.9357,-346.6405 -1029.0601,-356.6785 -1027.0126,-367.0912 -1024.8671,-378.3102 -1022.5891,-390.6307 -1020.0955,-404.0726 -1017.3141,-418.1751 -1014.2261,-432.4656 -1011.2419,-446.4244 -1008.7205,-459.5172 -1006.6262,-471.8295 -1004.8938,-483.6881 -1003.7195,-494.7603 -1003.1722,-504.7955 -1002.8013,-514.1926 -1002.3122,-522.9664 -1001.9696,-530.9345 -1001.6737,-538.5564 -1001.1347,-546.3681 -1000.3675,-554.7169 -999.4275,-563.6707 -998.6194,-572.9281 -998.0351,-582.7669 -997.5302,-593.9031 -997.1425,-606.3942 -996.8799,-619.8693 -996.7002,-634.2357 -996.5762,-649.3145 -996.8629,-664.6923 -998.2601,-680.1304 -1000.9216,-695.6691 -1004.4295,-711.1707 -1008.3942,-726.1192 -1012.4156,-740.2186 -1016.2016,-753.3862 -1019.7112,-765.873 -1023.0768,-778.2618 -1026.43,-790.4591 -1029.5578,-802.3465 -1032.3119,-814.0787 -1034.5944,-825.7543 -1036.1422,-837.8191 -1037.0236,-850.3258 -1037.5172,-862.9891 -1037.7956,-875.6805 -1037.8906,-888.0836 -1037.3262,-900.2176 -1035.4708,-912.3099 -1032.472,-924.2016 -1028.729,-936.1687 -1024.1809,-948.7181 -1018.7389,-962.1154 -1012.6328,-976.2782 -1006.1864,-990.5401 -999.6063,-1004.3673 -993.1647,-1017.6473 -987.2416,-1030.2486 -981.6483,-1042.6326 -975.7802,-1055.5699 -969.5167,-1069.142 -962.9721,-1083.1425 -956.246,-1097.0512 -949.4689,-1110.5281 -942.6413,-1123.7885 -935.7483,-1137.2707 -928.5675,-1151.2108 -920.7781,-1165.4606 -912.9367,-1179.7805 -905.8087,-1193.6679 -899.4085,-1206.6339 -893.719,-1218.4635 -888.6406,-1229.6672 -883.872,-1241.0032 -879.2554,-1252.7681 -874.697,-1265.1488 -869.8777,-1277.9861 -864.6835,-1290.6043 -859.1863,-1302.4228 -853.1301,-1313.509 -846.9132,-1323.7807 -841.0238,-1333.2339 -835.1171,-1342.5379 -828.9874,-1351.8416 -823.0604,-1360.6564 -817.8185,-1368.9902 -812.8251,-1377.3436 -807.0285,-1385.7812 -800.0915,-1394.1526 -792.6632,-1402.4994 -785.4559,-1410.6345 -778.6728,-1418.3555 -772.2494,-1425.6036 -766.072,-1432.3968 -760.2666,-1438.7722 -755.1353,-1444.5232 -748.5679,-1451.698 -741.6058,-1459.1594 -736.7844,-1464.8538 -731.046,-1473.6986 -725.3637,-1483.0565 -721.3454,-1489.2917 -715.6574,-1497.3324 -710.3921,-1505.4694 -707.4251,-1511.995 -705.1323,-1519.4841 -703.4854,-1528.7978 -702.0701,-1540.3986 -701.1843,-1550.3097 -700.8496,-1557.5683 -700.6087,-1565.0189 -700.4633,-1572.3113 -700.5227,-1580.7591 -700.8145,-1589.8371 -700.5992,-1598.3332 -699.3679,-1607.351 -696.6692,-1617.2151 -694.7972,-1622.3996 A8.3859,8.3859 0 0 1 -679.1428,-1616.3804 T-680.5267,-1612.836 -683.0213,-1605.503 -684.8979,-1597.8445 -685.8698,-1589.7998 -686.2213,-1580.6842 -686.372,-1572.1845 -686.3598,-1564.7966 -686.3532,-1557.1643 -686.4308,-1549.5579 -686.6933,-1542.0131 -687.7012,-1532.242 -689.5812,-1520.5454 -692.4077,-1510.1845 -696.2922,-1501.8325 -701.6387,-1493.9349 -708.709,-1484.6167 -714.5472,-1476.4066 -718.5784,-1469.9237 -722.7961,-1463.2549 -727.4491,-1456.8877 -732.8785,-1450.6561 -740.3128,-1443.5027 -747.3566,-1437.0844 -752.8698,-1431.6968 -758.9581,-1425.6432 -765.3004,-1419.2407 -771.8598,-1412.2937 -778.6997,-1404.699 -785.8165,-1396.5264 -792.9053,-1388.2332 -799.3439,-1380.4126 -804.9747,-1372.4896 -810.3203,-1364.1098 -815.9409,-1355.7915 -821.9114,-1347.1852 -827.9585,-1337.9807 -833.8538,-1328.7476 -839.7149,-1319.4151 -845.7501,-1309.4684 -851.5603,-1298.864 -856.9011,-1287.3959 -861.9964,-1275.0284 -866.7977,-1262.2376 -871.4197,-1249.6905 -876.113,-1237.7372 -880.9732,-1226.1921 -886.1306,-1214.8176 -891.8588,-1202.908 -898.3179,-1189.8262 -905.5528,-1175.7378 -913.3909,-1161.4241 -921.0829,-1147.3566 -928.2528,-1133.4374 -935.1563,-1119.9344 -941.9478,-1106.7451 -948.6677,-1093.3849 -955.3451,-1079.5776 -961.8724,-1065.6143 -968.1125,-1052.0935 -973.9759,-1039.1664 -979.6214,-1026.6701 -985.5897,-1013.9731 -992.0051,-1000.7482 -998.5154,-987.0717 -1004.9014,-972.9457 -1010.9382,-958.9503 -1016.2661,-945.8544 -1020.6952,-933.6554 -1024.3167,-922.1287 -1027.1664,-911.0176 -1028.9249,-899.8162 -1029.4706,-888.1448 -1029.3765,-875.8649 -1029.1019,-863.3163 -1028.6226,-850.9143 -1027.7917,-838.891 -1026.3265,-827.3679 -1024.1049,-816.0042 -1021.402,-804.4924 -1018.2927,-792.6998 -1014.9248,-780.4802 -1011.5685,-768.1659 -1008.0584,-755.7344 -1004.2476,-742.5568 -1000.1581,-728.3167 -996.0795,-713.0725 -992.4305,-697.1335 -989.6088,-680.9348 -988.0652,-664.8958 -987.6287,-649.3 -987.554,-634.2077 -987.4611,-619.8153 -987.351,-606.2873 -987.232,-593.6797 -987.1997,-582.3089 -987.4471,-572.0508 -988.1024,-562.513 -988.9933,-553.5565 -989.9208,-545.3012 -990.8445,-537.7517 -991.6717,-530.133 -992.591,-522.1155 -993.6009,-513.6006 -994.4243,-504.2132 -995.2571,-493.8575 -996.5111,-482.472 -998.2541,-470.4161 -1000.3536,-457.9215 -1002.8719,-444.6525 -1005.8085,-430.668 -1008.7939,-416.5265 -1011.4578,-402.5144 -1013.8135,-389.0767 -1015.9133,-376.6981 -1017.8247,-365.3458 -1019.7332,-354.9105 -1021.6357,-345.0215 -1023.3951,-335.2006 -1024.9485,-325.1544 -1026.4925,-314.7959 -1028.2393,-303.683 -1030.0034,-291.2381 -1031.5369,-277.3631 -1032.6959,-262.1816 -1033.1957,-246.4958 -1032.9859,-231.5883 -1032.819,-219.5236 -1034.887,-210.5166 -1037.8054,-202.7407 -1039.8859,-192.989 -1041.858,-182.9591 -1043.5745,-174.654 -1045.2881,-165.9767 -1046.8284,-156.9845 -1048.362,-147.8417 -1050.1558,-138.6882 -1052.1518,-129.2973 -1054.1593,-119.6129 -1056.0284,-109.8607 -1057.5916,-100.7019 -1058.581,-92.2878 -1058.8337,-84.0244 -1058.6767,-75.7146 -1058.3189,-67.2815 -1057.5949,-58.658 -1056.2744,-50.0924 -1054.1398,-41.4709 -1051.2976,-32.7397 -1047.8403,-24.2095 -1043.6847,-15.7682 -1039.0266,-7.3199 -1034.0335,0.7259 -1028.3818,8.2971 -1021.8125,15.5716 -1014.9614,22.3547 -1008.7138,28.4437 -1003.0999,33.7725 -997.4583,38.5736 -991.2782,43.2948 -984.6561,48.0761 -977.6369,52.9124 -970.1448,57.8492 -962.4211,62.8544 -954.7061,67.7617 -946.8181,72.5724 -938.4303,77.5698 -929.9247,82.7532 -921.7584,87.7018 -913.8483,92.0993 -906.4755,95.9254 -899.6459,99.1345 -892.3776,101.7611 -884.3263,104.0852 -876.0775,106.3098 -868.0558,108.4563 -860.4534,110.4638 -853.1185,112.2508 -845.5776,113.7325 -837.6091,114.971 -829.2055,116.1015 -820.5254,117.1379 -811.8086,118.081 -803.2842,118.8962 -795.2507,119.5422 -787.6754,120.0903 -777.8415,120.7734 -766.2927,121.253 -756.078,121.4463 -746.4023,121.7477 -736.4132,122.1481 -725.9348,122.6968 -714.853,123.5186 -705.2313,124.335 -696.4192,124.9671 -685.7619,125.6515 -673.1787,126.6764 -658.2255,128.364 -640.565,130.7611 -620.7992,133.4905 -600.6314,135.6753 -582.2187,136.5872 -568.1141,136.3541 -558.6485,136.2852 -551.3591,136.9641 -542.4402,138.2249 -533.2306,139.7676 -525.0316,141.4812 -515.6579,143.5953 -505.1478,145.6503 -493.5795,147.7112 -481.087,149.8706 -466.7433,151.4825 -449.9719,152.4507 -431.205,153.0468 -410.8493,153.2322 -389.1599,153.2097 -366.8518,153.1757 -344.5488,153.1232 -321.5934,153.0412 -297.1865,152.9112 -271.3505,152.7022 -244.6479,152.3617 -219.3445,151.8019 -198.0526,150.8788 -181.6512,149.4514 -169.5892,145.729 -161.6581,139.6412 -154.909,132.3856 -145.6033,123.5249 -133.5742,113.3615 -119.4822,102.4072 -104.2443,91.001 -88.659,79.1494 -73.7663,67.1929 -60.367,55.7458 -48.3233,44.4601 -37.2394,33.121 -26.9346,22.2219 -17.402,11.5177 -8.9645,0.9448 -5.0886,-4.2191 A6.6102,6.6102 0 0 1 5.0886,4.2191 Z" stroke-linecap="round" fill="#1d1d1d"/></g></g><g transform="matrix(1, 0, 0, 1, -5747.2193, 6279.5045)" opacity="1"><g transform="scale(1)"><path d="M0,-8.1021 T2.0377,-8.1244 8.0284,-8.4094 15.5746,-10.4202 22.4231,-14.3363 29.2228,-19.2237 37.937,-25.2498 47.9523,-31.4975 56.8314,-37.1579 65.2632,-42.8376 74.1062,-48.4952 82.7465,-54.2252 91.5273,-60.9261 98.9417,-66.7694 106.4477,-73.542 115.571,-82.515 124.1655,-90.5483 131.5532,-97.3004 137.1221,-103.4684 141.6438,-109.7789 145.8869,-116.7529 150.4651,-124.3003 156.5591,-133.3344 162.4574,-141.801 167.5945,-148.6605 173.5087,-156.3086 180.2253,-165.0278 187.8685,-174.8698 195.8466,-185.3007 203.3658,-195.5926 210.0331,-205.1431 215.3897,-213.6727 219.2577,-221.0461 223.2184,-230.4327 228.2683,-242.9798 232.4736,-253.2525 235.5786,-261.1209 238.3388,-269.4939 240.7268,-278.3603 243.3504,-287.814 246.35,-297.7491 249.8868,-308.2751 253.8898,-318.9148 257.9851,-328.9698 262.011,-338.1532 265.9767,-346.3318 269.8403,-353.4013 274.8053,-361.9497 280.6974,-372.0393 285.3147,-380.6532 288.1427,-388.0286 290.4108,-396.1837 293.5667,-406.1119 297.3421,-416.0246 301.2446,-425.398 305.2931,-433.7483 309.9754,-441.367 315.7212,-449.7588 322.0053,-458.4501 328.1018,-466.7804 333.4064,-474.305 338.107,-481.1629 343.2198,-488.0266 349.6437,-495.4401 357.1445,-503.4743 365.1475,-512.0943 373.1824,-520.8791 380.5673,-529.1099 387.0059,-536.5499 392.9311,-543.4326 398.6873,-550.0373 404.2157,-556.4503 409.5267,-562.664 414.7057,-568.9348 420.1403,-575.5787 425.7876,-582.4686 431.2995,-589.3964 437.2636,-596.6619 443.9521,-604.35 450.4028,-611.9513 456.1837,-619.2875 461.6427,-626.3263 466.5851,-632.8467 470.9546,-638.9784 475.0257,-644.8044 479.881,-653.2127 484.2649,-662.2432 487.3107,-669.4086 490.414,-676.9439 493.5233,-684.3892 497.3164,-693.281 501.8481,-703.3674 506.7628,-711.8694 512.5029,-719.6458 518.519,-727.8381 523.8738,-735.5755 528.5653,-742.6009 532.5603,-748.9998 536.0759,-756.9886 539.3106,-767.4599 542.8682,-779.86 546.1718,-790.4839 548.9186,-798.6101 552.1116,-807.6581 555.203,-816.8401 557.7324,-825.7733 559.7746,-834.5216 561.4243,-842.996 562.5178,-851.1469 563.1973,-859.806 563.8283,-870.1517 564.3782,-882.2669 564.7489,-895.1508 565.0008,-907.4628 564.9812,-917.6273 564.477,-927.5698 563.7911,-937.49 563.2549,-946.1679 563.932,-955.9706 567.507,-967.0538 573.5049,-977.9168 578.6574,-987.1756 582.3466,-999.8991 586.0737,-1015.3755 590.0488,-1029.4236 594.3865,-1043.5423 598.8386,-1056.4748 603.2193,-1067.9893 607.1481,-1078.2638 610.2808,-1087.3224 612.8724,-1095.4237 615.2928,-1102.9789 617.8294,-1110.6248 620.9497,-1118.8727 624.6813,-1127.6658 628.7311,-1136.7958 632.9494,-1146.1583 637.2176,-1155.5116 641.4237,-1164.4419 645.5196,-1172.7193 649.5425,-1180.4592 653.2715,-1187.6342 656.5783,-1194.253 659.9431,-1201.0509 663.7191,-1208.7084 667.7911,-1217.1593 671.7558,-1226.0383 675.4072,-1235.1829 678.7832,-1244.3207 681.399,-1252.9651 682.9777,-1261.4314 683.9193,-1270.4249 684.5747,-1280.1989 685.05,-1290.5131 685.4485,-1300.8712 685.9828,-1311.0827 686.7665,-1320.9281 687.8875,-1330.3099 689.2814,-1339.3435 690.7984,-1348.1209 692.579,-1356.9226 694.5886,-1365.6969 696.3519,-1374.1414 697.5333,-1382.3027 698.2042,-1390.4042 698.5329,-1398.2995 698.62,-1405.5641 698.5043,-1415.2529 698.5518,-1427.9083 699.1303,-1440.4529 700.1168,-1452.2503 700.8269,-1462.3618 700.9605,-1471.2475 700.8977,-1480.0805 700.8313,-1489.6392 700.7797,-1499.598 701.4623,-1509.7918 703.8238,-1520.8789 706.7633,-1532.1433 708.9183,-1543.4637 710.3578,-1555.1992 711.5643,-1567.1168 712.9645,-1579.8756 713.9764,-1590.1942 714.3761,-1597.3599 714.6534,-1604.7585 714.7749,-1614.7186 714.6586,-1625.0883 714.358,-1634.2169 714.0956,-1642.9242 713.9198,-1652.045 713.8297,-1657.4406 A8.1303,8.1303 0 0 1 730.0903,-1657.4394 T729.9993,-1652.0428 729.8204,-1642.9174 729.5425,-1634.1862 729.194,-1625.0149 728.9364,-1614.5593 728.8313,-1604.446 728.778,-1596.7911 728.5958,-1589.1439 727.8682,-1578.5402 726.6814,-1565.6217 725.554,-1553.5683 724.1551,-1541.0888 721.9577,-1528.4004 719.1907,-1517.0347 717.1334,-1508.0983 716.468,-1499.5817 716.3904,-1489.5905 716.2437,-1479.9273 715.9322,-1470.7978 715.296,-1461.1324 714.1006,-1450.8306 712.7199,-1439.4367 711.683,-1427.3552 710.9947,-1415.03 710.5304,-1405.1603 710.1087,-1397.6676 709.5422,-1389.3492 708.6378,-1380.5884 707.1916,-1371.7946 705.2504,-1363.1736 703.1721,-1354.6732 701.2767,-1346.1662 699.5613,-1337.6055 697.9718,-1328.9682 696.6765,-1320.0783 695.8215,-1310.5947 695.3562,-1300.5893 695.1659,-1290.2009 694.9998,-1279.6042 694.5268,-1269.3023 693.4826,-1259.3852 691.567,-1249.8826 688.7482,-1240.7411 685.4628,-1231.3518 681.958,-1221.6978 678.1768,-1212.3417 674.2479,-1203.5258 670.3868,-1195.6283 666.7017,-1188.8351 662.974,-1182.3176 658.9507,-1175.3563 654.7868,-1167.9903 650.6451,-1160.0939 646.547,-1151.3814 642.5307,-1142.0185 638.6205,-1132.569 634.8544,-1123.4171 631.3353,-1114.8614 628.1846,-1106.916 625.2926,-1099.4069 622.3916,-1092.0692 619.3267,-1084.0904 615.9471,-1074.9796 612.2147,-1064.7377 608.3483,-1053.4141 604.5708,-1040.7065 601.0818,-1026.7315 598.2507,-1013.0325 596.5321,-1000.745 595.2135,-990.3414 591.7894,-980.3955 586.028,-970.3524 580.6891,-961.4741 577.517,-953.9264 576.3199,-946.1554 575.7727,-937.475 575.0529,-927.5429 574.4942,-917.591 574.3952,-907.41 574.5072,-895.0573 574.6318,-882.0804 574.7489,-869.7395 574.618,-858.9367 573.9569,-849.5554 572.6913,-840.8054 570.9723,-832.0056 568.9782,-822.8082 566.6537,-813.3433 564.0527,-803.8777 561.4677,-794.6903 559.0611,-786.3166 555.9108,-775.8977 552.0486,-763.5743 547.4618,-751.731 542.7124,-742.4856 538.4062,-735.9967 533.7244,-729.0499 528.6474,-721.0356 523.2809,-712.2746 518.4187,-704.5465 513.9347,-696.9978 509.1257,-687.9103 505.115,-679.5501 502.0621,-672.2191 498.9634,-664.4645 495.783,-656.9324 492.4277,-649.8804 486.5546,-640.7675 480.1078,-632.1071 475.2795,-625.9969 470.0685,-619.6512 464.4903,-612.7404 458.5524,-605.2157 452.2444,-597.3931 445.9702,-589.6393 440.1698,-582.3428 434.5594,-575.2842 428.8852,-568.3501 423.2707,-561.6304 417.7429,-555.34 412.1522,-549.3259 406.3296,-543.0949 400.3463,-536.7793 394.221,-530.217 387.6743,-522.8637 380.4594,-514.4831 372.7781,-505.3869 365.2498,-496.3375 358.4187,-488.0932 352.6138,-480.9767 347.6786,-474.4877 342.9028,-467.7478 337.784,-460.1798 332.4289,-451.7061 327.2604,-442.7245 322.6833,-434.2235 319.0309,-427.1277 315.3737,-419.1754 311.4288,-410.1809 307.7464,-401.1971 304.47,-391.8619 301.3266,-382.9476 297.0431,-374.1629 291.2567,-365.2327 284.4835,-355.7256 278.9387,-347.9567 274.9007,-341.7228 270.8119,-334.2023 266.8255,-325.4615 263.0661,-315.6823 259.6516,-305.2766 256.7299,-294.8596 254.2142,-285.0042 251.9337,-275.5254 249.6577,-265.9359 246.9152,-256.7297 243.8089,-248.5238 240.6998,-241.2138 236.2588,-231.8799 231.6989,-222.8008 228.0383,-216.1516 223.5316,-208.6109 218.041,-199.7844 211.6525,-189.8398 204.5467,-179.0675 197.2881,-168.2184 190.6544,-157.8897 184.9044,-148.405 179.8663,-140.2318 175.531,-133.3353 170.0884,-124.5404 163.5131,-114.3358 158.6268,-106.7742 154.5278,-100.6505 148.8754,-93.4455 141.6918,-85.9452 134.0231,-79.2852 126.131,-72.1356 119.5271,-65.3513 114.1731,-59.7531 106.2809,-52.6834 96.5232,-44.7512 87.1968,-37.9074 78.3933,-32.1978 69.9976,-26.6968 61.2656,-20.7638 51.8968,-14.7061 43.1098,-8.603 35.1727,-2.7776 26.8113,2.5222 18.3151,6.4104 9.1208,8.0031 2.0377,8.1244 0,8.1021 A8.1021,8.1021 0 0 1 0,-8.1021 Z" stroke-linecap="round" fill="#1d1d1d"/></g></g><g transform="matrix(1, 0, 0, 1, -4649.3477, 6617.8984)" opacity="1"><g transform="scale(1)"><path d="M-1.4598,6.3893 T-5.314,5.4861 -14.2772,1.874 -23.7911,-4.4293 -31.7947,-12.2723 -38.3274,-21.1278 -43.651,-30.1953 -47.8137,-38.9159 -50.7259,-47.3476 -52.544,-55.4655 -53.655,-62.8767 -54.5722,-72.6441 -55.3159,-84.1699 -54.8224,-95.4612 -51.8776,-107.4251 -47.1524,-118.7021 -42.5532,-128.6688 -39.4232,-137.6216 -38.2432,-146.8024 -38.1221,-155.7797 -38.0885,-164.9635 -37.839,-175.1174 -37.1322,-184.8255 -36.205,-194.9399 -35.0679,-206.6806 -34.125,-218.8482 -33.7583,-231.0804 -33.5499,-240.9638 -33.3439,-248.5659 -33.117,-256.6332 -32.9284,-264.75 -32.811,-272.6223 -32.7559,-280.1958 -32.7579,-287.362 -32.7865,-294.2923 -32.7728,-301.5571 -32.7406,-309.0119 -32.6964,-316.6092 -32.6192,-324.5337 -32.57,-332.3521 -32.7836,-339.9519 -33.7294,-347.7577 -35.6752,-356.1088 -38.4093,-364.7791 -41.4918,-373.3631 -44.5113,-381.8352 -47.3567,-389.5244 -51.3884,-398.6102 -56.8178,-410.2219 -61.5182,-419.7535 -65.5151,-427.2454 -69.5536,-434.7866 -73.3227,-441.7414 -76.7343,-449.0901 -79.4963,-457.5427 -81.6409,-466.909 -83.5017,-477.3631 -85.3706,-488.8673 -87.3723,-500.6277 -89.4163,-511.8237 -91.7215,-521.9671 -94.4162,-531.2886 -97.1659,-540.6297 -99.8039,-549.9052 -102.3329,-558.3826 -104.7027,-565.7482 -107.4141,-576.0978 -109.056,-588.6392 -108.8243,-601.4228 -107.7632,-616.988 -106.0407,-633.9192 -104.2696,-650.8053 -103.0012,-667.2154 -102.2626,-683.0504 -101.8262,-698.3142 -101.3779,-713.6493 -100.488,-729.1536 -99.0255,-744.089 -96.9657,-757.9475 -94.162,-770.5755 -90.9597,-782.0487 -87.7377,-793.0444 -84.1818,-804.5589 -79.6549,-816.9003 -74.12,-829.6121 -68.3478,-841.9485 -62.7883,-853.4451 -57.6901,-864.0564 -53.3503,-873.8615 -49.569,-882.9614 -45.9903,-891.3543 -42.749,-898.5288 -40.1159,-906.1477 -38.4197,-914.6924 -36.5871,-925.1544 -33.4749,-939.2674 -29.5687,-955.2208 -25.2231,-971.7297 -20.6686,-987.914 -16.3176,-1003.0597 -12.3889,-1017.2394 -8.7047,-1031.1277 -5.1496,-1045.1757 -1.6685,-1059.3873 1.8617,-1073.7244 5.6895,-1088.2974 9.7794,-1103.1398 13.7599,-1117.8164 17.3615,-1131.5496 20.4636,-1143.8842 23.2677,-1155.133 26.1603,-1166.1392 29.4264,-1178.0943 33.2238,-1192.1215 37.7408,-1208.1341 42.8854,-1224.6039 48.035,-1240.1159 52.8801,-1254.2238 57.0353,-1266.6952 59.8127,-1277.9983 61.3707,-1289.7455 62.2947,-1303.0591 63.1193,-1318.0802 64.143,-1334.7077 65.3081,-1352.1308 66.6927,-1369.2791 68.3279,-1385.7465 70.1806,-1401.613 72.2248,-1417.1987 74.3784,-1432.5279 76.5982,-1447.6329 78.7195,-1462.7167 80.5126,-1477.4625 81.8503,-1491.1783 82.9323,-1503.5342 84.1661,-1514.883 85.3824,-1525.2942 86.4279,-1534.862 87.9325,-1544.4365 90.1367,-1554.2597 92.5917,-1564.2728 95.0602,-1574.7123 97.3594,-1584.9469 99.1329,-1594.3313 100.1919,-1603.0587 100.7584,-1611.8811 101.1721,-1621.5061 101.5264,-1631.858 101.8187,-1642.6109 101.9878,-1653.2645 102.0224,-1663.5295 101.9551,-1673.2936 101.7739,-1682.2079 101.5483,-1690.494 101.3439,-1698.559 101.1387,-1706.2203 100.2528,-1715.9174 97.4232,-1727.1989 92.4483,-1738.7118 87.7677,-1748.3264 84.0009,-1755.0474 79.7439,-1761.9158 75.2973,-1768.6641 69.1201,-1777.1391 61.8127,-1786.681 55.4689,-1794.4284 49.4115,-1801.6174 43.857,-1808.4188 39.0422,-1814.1026 34.5894,-1819.5133 29.8617,-1825.965 24.777,-1834.1157 20.1682,-1841.3721 14.7306,-1848.1065 9.4269,-1856.0681 6.0466,-1864.3897 3.3251,-1872.8316 1.1369,-1880.3262 -1.1761,-1886.9792 -4.2011,-1893.9705 -7.5841,-1902.1213 -12.0193,-1910.227 -14.6638,-1913.8867 A8.7564,8.7564 0 0 1 -1.2562,-1925.1533 T0.3135,-1923.3443 4.2552,-1917.7768 8.1824,-1910.397 11.003,-1903.0457 13.8062,-1895.5464 16.802,-1886.6832 19.5124,-1877.6453 21.9154,-1870.0946 24.6536,-1863.2343 28.4454,-1857.3042 33.6309,-1850.4352 38.7212,-1842.4097 43.1899,-1835.0932 48.1799,-1827.8803 53.3271,-1820.9947 58.3812,-1814.1917 63.6873,-1806.957 69.5625,-1799.1248 76.0001,-1789.9171 81.4725,-1781.9981 85.8574,-1775.7397 90.5762,-1768.8015 95.3366,-1761.4998 99.499,-1754.3242 103.107,-1747.2918 106.1772,-1740.5069 108.7158,-1733.9762 110.8359,-1727.2006 112.1197,-1720.2352 112.5044,-1713.3335 112.4145,-1706.2168 112.2042,-1698.553 111.9908,-1690.4841 111.7493,-1682.1925 111.5401,-1673.2698 111.4235,-1663.4901 111.3715,-1653.1978 111.388,-1642.491 111.412,-1631.6324 111.2942,-1621.0708 110.877,-1611.0634 109.9813,-1601.6721 108.4676,-1592.449 106.405,-1582.9404 104.1572,-1572.6617 101.8756,-1562.0079 99.4744,-1552.0724 97.2047,-1542.8065 95.4179,-1533.6725 93.9533,-1524.206 92.5454,-1513.9618 91.319,-1502.7974 90.2293,-1490.3661 88.8698,-1476.4482 87.0563,-1461.5443 84.9278,-1446.4088 82.7155,-1431.356 80.5723,-1416.1035 78.5424,-1400.6351 76.7054,-1384.9129 75.084,-1368.5997 73.7085,-1351.5691 72.5464,-1334.1911 71.526,-1317.6199 70.6909,-1302.4591 69.7048,-1288.6051 67.9775,-1276.0051 65.0272,-1264.0494 60.843,-1251.4854 56.0274,-1237.4616 50.9232,-1222.0908 45.8492,-1205.8525 41.3564,-1189.9181 37.5572,-1175.8749 34.3156,-1163.9984 31.4542,-1153.0935 28.6534,-1141.8305 25.539,-1129.4108 21.9316,-1115.6058 17.9594,-1100.8923 13.9199,-1086.1467 10.1581,-1071.6955 6.6764,-1057.3623 3.2428,-1043.0782 -0.2495,-1028.9222 -3.8386,-1014.9227 -7.6262,-1000.6313 -11.7408,-985.4893 -15.9451,-969.4126 -19.8254,-953.0216 -23.0937,-937.2983 -25.3589,-923.4974 -26.7671,-912.629 -28.3578,-904.6026 -32.4141,-896.1857 -37.4344,-887.3992 -41.4105,-879.3933 -45.5523,-870.3632 -50.095,-860.4126 -55.2032,-849.7751 -60.7133,-838.375 -66.3903,-826.2449 -71.7342,-814.0065 -76.1101,-802.0738 -79.6207,-790.671 -82.8015,-779.7691 -85.8827,-768.7238 -88.5447,-756.6922 -90.5114,-743.2627 -91.8954,-728.6783 -92.7022,-713.4247 -93.0517,-698.1022 -93.3581,-682.6876 -93.9267,-666.5841 -94.9585,-649.925 -96.3767,-633.074 -97.5999,-616.5287 -98.0073,-601.5979 -97.5108,-589.6469 -96.1652,-578.3933 -94.3718,-568.7044 -92.4756,-561.1215 -90.263,-552.532 -87.8087,-543.3072 -85.191,-533.8895 -82.5203,-524.1417 -79.9953,-513.7348 -77.5052,-502.5648 -74.9165,-490.9442 -72.2859,-479.7732 -69.7918,-469.8347 -67.5857,-461.4577 -65.2745,-454.3524 -62.2583,-447.6946 -58.5757,-440.8202 -54.3939,-433.4086 -50.0033,-425.7631 -46.1842,-418.5121 -42.3695,-409.2951 -38.9432,-400.3772 -36.3418,-393.5142 -33.6176,-385.7657 -30.5741,-377.4495 -27.1355,-368.6084 -23.7046,-359.1357 -21.0314,-349.4251 -19.6989,-340.3834 -19.3901,-332.353 -19.341,-324.5336 -19.2639,-316.609 -19.22,-309.0115 -19.1882,-301.5563 -19.1753,-294.291 -19.2052,-287.3597 -19.2096,-280.1921 -19.1588,-272.6159 -19.0488,-264.7388 -18.8732,-256.6128 -18.6692,-248.5263 -18.4981,-237.6868 -18.4786,-224.4481 -18.8196,-211.5853 -19.6502,-199.3274 -20.505,-188.2775 -21.3226,-178.9327 -21.817,-169.7774 -21.8523,-160.0989 -22.027,-151.2643 -22.545,-143.1414 -23.9981,-135.1902 -27.0175,-126.9233 -31.455,-117.512 -36.2417,-107.6875 -39.9141,-98.4939 -41.6801,-89.2688 -42.1225,-79.0467 -41.9387,-67.2784 -41.318,-57.6324 -40.19,-50.6844 -38.0548,-43.4454 -34.4599,-35.6744 -29.6046,-27.7249 -23.9763,-20.4696 -17.3949,-14.4347 -9.9802,-9.9156 -2.3576,-7.2388 1.4598,-6.3893 A6.554,6.554 0 0 1 -1.4598,6.3893 Z" stroke-linecap="round" fill="#1d1d1d"/></g></g><g transform="matrix(1, 0, 0, 1, -4521.6688, 5592.3241)" opacity="1"><g transform="scale(1)"><path d="M0,-6.3402 T5.2669,-6.1135 16.3483,-5.6637 28.4495,-4.5367 41.0344,-0.7321 52.8155,6.8994 62.5387,16.8662 69.92,27.6102 75.1178,38.4661 78.4978,48.0801 80.5872,55.8872 80.8274,63.1847 77.7198,69.9743 71.4943,74.5845 63.6025,76.1026 55.3504,73.554 48.7963,66.9334 44.8074,58.4832 42.4024,50.1069 40.7502,42.4805 39.3307,32.8733 38.4836,20.707 39.0736,11.019 41.2209,4.073 46.8412,-4.4534 55.4144,-11.4747 59.8108,-13.3562 A7.6602,7.6602 0 0 1 64.6101,1.1931 T61.4674,2.2262 56.0254,6.9546 52.9848,15.5338 52.4021,25.793 53.3353,37.0941 55.9779,49.7691 59.6584,60.1137 65.8033,63.5619 70.3655,59.1077 69.7369,50.8874 67.0963,42.2595 62.5125,32.6996 55.9329,23.2815 47.6681,14.832 38.2797,8.7143 27.7658,5.9571 16.3438,5.6637 5.2669,6.1135 0,6.3402 A6.3402,6.3402 0 0 1 0,-6.3402 ZM68.8109,-9.9692 T70.5582,-6.9214 72.0312,0.2045 68.7053,8.1677 60.0137,13.9365 48.3091,16.2709 36.2908,16.8332 24.8544,16.6431 14.7134,15.4484 5.653,12.7017 1.251,10.848 A6.2778,6.2778 0 0 1 6.9825,-0.3231 T9.7418,1.4975 16.099,4.1393 24.5871,4.9256 34.9774,4.18 45.2542,2.4733 53.6185,0.9154 56.4081,-0.9202 55.61,-2.1939 A7.6602,7.6602 0 0 1 68.8109,-9.9692 ZM3.4332,-0.978 T7.8606,-1.6404 16.2742,-1.5284 23.8576,0.4561 34.3834,3.6379 41.3119,5.6096 A7.2135,7.2135 0 0 1 36.8587,19.3321 T29.9125,16.9121 17.5931,12.7686 8.5101,11.274 4.8003,11.503 A6.2778,6.2778 0 0 1 3.4332,-0.978 ZM33.054,8.5138 T33.2393,8.1719 33.4245,7.83 A7.2789,7.2789 0 0 1 45.5963,15.8158 T45.3565,16.1219 45.1166,16.4279 A7.2135,7.2135 0 0 1 33.054,8.5138 ZM32.4109,13.4289 T31.3944,9.4764 30.3014,-0.4245 32.6572,-10.0786 40.3441,-15.6233 51.6288,-17.6783 64.128,-17.4212 76.7355,-15.5733 87.8084,-12.6322 96.3315,-9.8173 104.7764,-6.0026 111.608,-0.5843 113.5834,2.2682 A6.6997,6.6997 0 0 1 101.5772,8.2177 T101.6466,7.224 98.7554,4.1698 92.6507,0.76 85.1462,-1.8927 75.5214,-3.9768 64.5993,-4.5979 54.1315,-3.6108 47.2597,0.0554 45.9041,6.5554 46.6099,10.2169 A7.2789,7.2789 0 0 1 32.4109,13.4289 ZM108.1276,11.9203 T102.7424,12.4201 90.8555,10.9384 78.0087,5.731 66.9261,-0.3406 58.8937,-5.3093 52.8718,-10.3179 50.1448,-13.2036 A6.165,6.165 0 0 1 59.9173,-20.722 T63.6877,-16.6105 71.976,-10.1126 82.0292,-5.346 92.6094,-1.8742 102.3435,-1.1084 107.0329,-1.4344 A6.6997,6.6997 0 0 1 108.1276,11.9203 ZM52.1759,-22.4267 T54.4132,-23.7137 61.8905,-24.2965 70.6426,-19.0786 75.1181,-10.9962 76.0814,-7.4277 A7.5589,7.5589 0 0 1 61.2672,-4.4132 T60.6528,-8.4004 58.9623,-11.9432 57.8862,-11.4988 A6.165,6.165 0 0 1 52.1759,-22.4267 ZM71.9642,0.885 T68.9507,2.366 60.0976,4.3715 48.9066,5.085 43.5553,5.2739 A7.8188,7.8188 0 0 1 43.0047,-10.3539 T48.1993,-10.5366 57.7901,-10.9737 63.7853,-11.977 65.3844,-12.7258 A7.5589,7.5589 0 0 1 71.9642,0.885 Z" stroke-linecap="round" fill="#1d1d1d"/></g></g><g transform="matrix(1, 0, 0, 1, -5317.4227, 5387.535)" opacity="1"><g transform="scale(1)"><path d="M0,6.6391 T-5.3468,6.3593 -17.4599,5.8321 -31.4259,5.4006 -45.4239,5.0804 -58.2268,4.8446 -69.2593,4.7625 -78.4088,4.5849 -86.097,3.3319 -89.6636,2.2743 A5.6842,5.6842 0 0 1 -85.2801,-8.215 T-83.3813,-6.9887 -77.8832,-5.2713 -69.2577,-4.7625 -58.2268,-4.8446 -45.4239,-5.0804 -31.4259,-5.4006 -17.4599,-5.8321 -5.3468,-6.3593 0,-6.6391 A6.6391,6.6391 0 0 1 0,6.6391 ZM-88.2674,-8.5986 T-86.1445,-9.0639 -79.2184,-9.3819 -68.8056,-7.6471 -57.9761,-3.0394 -48.4761,3.8781 -41.104,11.701 -35.9982,19.4131 -33.3489,27.5386 -34.6357,36.274 -40.444,43.7751 -48.6734,48.552 -57.3948,50.873 -66.5541,50.3162 -75.505,45.6801 -82.707,38.0528 -87.92,29.9864 -93.3932,19.8073 -96.6862,13.4978 A6.8218,6.8218 0 0 1 -84.2762,7.8284 T-81.804,13.9787 -77.5513,23.3798 -73.4896,29.752 -67.0508,35.9652 -57.1006,37.9109 -47.6667,34.2427 -45.2265,26.836 -48.7824,18.6895 -54.5956,12.3522 -62.1214,7.0697 -70.563,3.7997 -78.6549,2.5584 -84.5244,2.5188 -86.6763,2.6579 A5.6842,5.6842 0 0 1 -88.2674,-8.5986 ZM-91.9226,17.3309 T-92.8906,17.2006 -93.8586,17.0703 A6.9762,6.9762 0 0 1 -90.9105,3.4329 T-89.9751,3.7141 -89.0398,3.9953 A6.8218,6.8218 0 0 1 -91.9226,17.3309 ZM-87.3299,15.0598 T-88.579,16.4994 -92.9169,22.4938 -101.2402,31.2925 -106.4747,35.5362 A7.6285,7.6285 0 0 1 -113.6951,22.0959 T-112.0258,21.5339 -107.3118,17.3985 -102.2399,10.9656 -98.8259,6.7748 -97.4391,5.4435 A6.9762,6.9762 0 0 1 -87.3299,15.0598 ZM-117.2349,31.4753 T-118.4572,28.2963 -119.8855,19.5725 -116.8218,8.3139 -108.531,0.7815 -97.7678,-0.3867 -86.3526,2.5469 -75.1417,5.6689 -63.7583,6.8455 -55.0685,6.3452 -52.2244,5.5069 A7.9733,7.9733 0 0 1 -48.9687,21.1175 T-53.6722,21.8533 -64.7723,22.3322 -74.8136,21.7645 -82.312,20.7613 -91.2529,18.1531 -100.3289,15.5512 -104.3032,18.5836 -103.6118,24.2294 -102.9349,26.1568 A7.6285,7.6285 0 0 1 -117.2349,31.4753 ZM-55.2483,19.7878 T-56.8904,18.6527 -64.0511,15.214 -72.7774,11.2094 -80.5978,6.4511 -87.2992,0.2994 -89.3881,-2.795 A8.0217,8.0217 0 0 1 -75.2455,-10.3699 T-75.1644,-9.4131 -72.0021,-6.3568 -63.1161,-1.7144 -54.0566,2.0434 -48.3734,5.0474 -45.9448,6.8365 A7.9733,7.9733 0 0 1 -55.2483,19.7878 ZM-83.8271,-14.4607 T-79.2383,-15.3088 -68.8756,-15.8921 -55.904,-15.3642 -41.6271,-14.8795 -28.5531,-14.4813 -17.9205,-14.2451 -9.7139,-13.6446 -3.4527,-11.5902 -0.7603,-10.0765 A6.0524,6.0524 0 0 1 -8.0357,-0.4021 T-10.7665,-1.8995 -17.9986,-3.4901 -28.4768,-3.3413 -41.4901,-2.7628 -55.5849,-1.9607 -67.8491,-0.8744 -76.9305,0.5211 -80.8064,1.2958 A8.0217,8.0217 0 0 1 -83.8271,-14.4607 ZM1.2392,-3.036 T0.892,-1.8207 0.5449,-0.6054 A6.2906,6.2906 0 0 1 -11.1731,-5.1854 T-10.6041,-6.314 -10.0351,-7.4426 A6.0524,6.0524 0 0 1 1.2392,-3.036 ZM-3.4417,3.1101 T-6.4596,4.1365 -14.5801,5.8311 -25.096,6.7112 -35.6992,7.0164 -45.7136,6.8026 -54.8724,5.393 -62.6767,2.7333 -70.5178,-2.0968 -76.2954,-8.1776 -77.7017,-10.9856 A6.8509,6.8509 0 0 1 -64.735,-15.4132 T-62.7403,-12.4625 -55.2401,-7.064 -45.546,-4.316 -36.3631,-4.3577 -26.4264,-5.2538 -17.39,-6.4876 -10.2411,-8.034 -7.1864,-8.9009 A6.2906,6.2906 0 0 1 -3.4417,3.1101 ZM-72.7845,-19.8689 T-69.5661,-20.6589 -62.8086,-20.2063 -56.8312,-15.6577 -53.4803,-8.7141 -52.1899,-1.6086 -52.2837,9.1893 -55.2803,20.5848 -61.5981,27.6098 -69.5915,32.3361 -77.5097,35.0471 -85.0836,35.6676 -88.9397,35.3442 A7.2915,7.2915 0 0 1 -86.4702,20.9718 T-85.339,21.5054 -79.089,20.4416 -70.5791,16.0541 -66.9326,8.3507 -66.2585,-1.9597 -67.7458,-6.9434 -69.6521,-6.53 A6.8509,6.8509 0 0 1 -72.7845,-19.8689 ZM-93.886,32.026 T-95.6293,29.2023 -98.5756,20.5534 -100.1163,9.1792 -100.6512,-1.3194 -100.8663,-10.3858 -99.8431,-21.0466 -98.8017,-27.5908 A6.579,6.579 0 0 1 -86.1183,-24.0892 T-87.4047,-19.2513 -88.7608,-10.7341 -88.3963,-2.3809 -87.1896,7.1149 -85.6657,15.4422 -83.2192,21.6188 -81.524,24.29 A7.2915,7.2915 0 0 1 -93.886,32.026 ZM-86.031,-24.4431 T-86.4593,-22.7894 -88.4189,-17.5112 -92.5818,-10.8844 -97.5914,-5.4371 -103.9857,0.6855 -113.4932,5.6273 -122.1608,4.7608 -127.1791,-0.7255 -130.1701,-7.5645 -132.7037,-16.959 -134.7449,-26.3922 -135.4011,-29.9144 A7.7502,7.7502 0 0 1 -120.1189,-32.5056 T-119.5933,-29.0575 -117.975,-20.7001 -115.402,-12.4175 -109.6517,-13.1385 -102.6512,-19.5431 -99.4049,-24.5452 -98.889,-27.2369 A6.579,6.579 0 0 1 -86.031,-24.4431 ZM-120.0356,-31.8415 T-120.0796,-27.7977 -119.6563,-19.3709 -117.5308,-9.0365 -112.5352,-0.757 -103.9695,2.3761 -95.7282,1.507 -89.4757,-2.0507 -86.2359,-3.9343 A7.1943,7.1943 0 0 1 -78.7841,8.3743 T-81.9549,10.3718 -88.56,14.2232 -95.7884,16.7885 -103.5668,17.1516 -111.8688,15.5731 -120.2507,11.8255 -126.9947,5.6767 -130.9989,-1.6177 -133.349,-9.3256 -134.8685,-17.5074 -134.9977,-25.4865 -135.0588,-29.9537 -135.4844,-30.5785 A7.7502,7.7502 0 0 1 -120.0356,-31.8415 Z" stroke-linecap="round" fill="#1d1d1d"/></g></g><g transform="matrix(1, 0, 0, 1, -5341.9653, 6401.9675)" opacity="1"><g transform="scale(1)"><path d="M 0 0 m -7.2344757399633615, 0 a 7.2344757399633615,7.2344757399633615 0 1,1 14.468951479926723,0 a 7.2344757399633615,7.2344757399633615 0 1,1 -14.468951479926723,0" stroke-linecap="round" fill="#1d1d1d"/></g></g><g transform="matrix(1, 0, 0, 1, -4989.7289, 6408.3854)" opacity="1"><g transform="scale(1)"><path d="M-1.4491,7.7507 T-5.0979,7.1321 -12.971,4.4841 -21.8883,0.0647 -31.6419,-5.0552 -36.7023,-7.7851 A7.945,7.945 0 0 1 -29.3177,-21.8549 T-26.4183,-20.4085 -18.9894,-16.6441 -9.3413,-11.6321 -1.3868,-8.3444 1.4491,-7.7507 A7.885,7.885 0 0 1 -1.4491,7.7507 Z" stroke-linecap="round" fill="#1d1d1d"/></g></g><g transform="matrix(1, 0, 0, 1, -5348.1368, 6407.1149)" opacity="1"><g transform="scale(1)"><path d="M-4.6724,-4.6209 T-0.3913,-8.5123 8.2124,-16.3833 16.2991,-24.0374 23.1601,-30.8267 28.8332,-36.4469 35.0551,-41.9987 41.5594,-46.9582 47.8945,-50.4256 55.5892,-52.6745 65.764,-52.3133 71.7207,-51.2575 A7.7869,7.7869 0 0 1 65.5394,-36.963 T61.7117,-37.7242 54.3368,-37.7484 46.7778,-35.012 38.2599,-29.6331 30.6558,-23.3271 23.9231,-16.4907 16.3241,-8.3041 8.5161,0.2968 4.6724,4.6209 A6.5715,6.5715 0 0 1 -4.6724,-4.6209 ZM75.4323,-40.32 T72.973,-36.0868 65.8079,-28.9867 55.3704,-23.5135 43.2778,-18.3553 30.2598,-13.2787 17.2443,-8.6009 5.5055,-5.028 -3.9129,-2.6096 -13.0789,-0.7552 -22.5436,-3.4006 -27.8898,-11.4447 -29.2621,-19.8506 -29.82,-27.6999 -29.7666,-36.9449 -29.0486,-45.7337 -28.579,-49.2638 A7.4966,7.4966 0 0 1 -13.681,-47.5762 T-14.3087,-41.7896 -15.0233,-31.932 -15.1796,-24.3324 -16.3582,-16.1272 -13.7893,-11.6435 -6.3332,-12.4889 2.3926,-14.6274 13.3591,-18.5035 25.6892,-23.7731 37.7398,-29.5842 48.2836,-35.5017 56.1423,-40.6527 60.5122,-45.3591 61.8279,-47.9005 A7.7869,7.7869 0 0 1 75.4323,-40.32 Z" stroke-linecap="round" fill="#1d1d1d"/></g></g><g transform="matrix(1, 0, 0, 1, -5036.5751, 6400.9575)" opacity="1"><g transform="scale(1)"><path d="M-5.502,-5.0614 T-2.5403,-8.0632 4.0123,-14.0393 11.1555,-19.5131 17.7251,-23.8852 26.0975,-27.9219 35.5907,-30.8802 45.2363,-31.9225 56.5626,-32.2361 67.5417,-31.1702 77.0257,-26.6914 84.8179,-19.1697 90.4979,-10.6627 90.9802,0.7061 84.2339,9.9035 73.1546,12.8846 60.3516,14.4289 47.3508,15.601 36.2619,16.3989 25.1847,17.0837 18.9363,17.4185 A5.2774,5.2774 0 0 1 18.0437,6.9015 T24.2592,6.1785 35.1147,5.002 45.6665,3.5822 57.8849,1.2243 69.8564,-2.7909 72.7622,-8.8169 66.2343,-14.6756 56.7689,-17.0862 46.2205,-16.9436 36.6377,-16.2104 27.2834,-13.2909 19.667,-8.7745 13.8291,-3.9375 8.2432,1.8638 5.502,5.0614 A7.476,7.476 0 0 1 -5.502,-5.0614 Z" stroke-linecap="round" fill="#1d1d1d"/></g></g><g transform="matrix(1, 0, 0, 1, -4454.2987, 5609.3953)" opacity="1"><g transform="scale(1)"><path d="M-6.4194,5.1051 T-8.1301,2.9031 -12.4793,-2.3212 -17.6567,-7.8894 -24.1231,-13.6767 -30.5555,-19.2294 -33.0605,-21.5404 A8.6182,8.6182 0 0 1 -21.3195,-34.1596 T-18.1045,-31.0075 -12.2562,-25.6606 -6.1441,-19.7519 0.1168,-12.7342 4.6591,-7.2678 6.4194,-5.1051 A8.2019,8.2019 0 0 1 -6.4194,5.1051 Z" stroke-linecap="round" fill="#1d1d1d"/></g></g><g transform="matrix(1, 0, 0, 1, -5384.9076, 5394.1484)" opacity="1"><g transform="scale(1)"><path d="M5.6318,-5.9527 T7.9761,-3.6208 13.9734,1.7063 20.5086,6.9829 27.0732,12.2851 34.3269,18.5341 40.5218,24.722 46.1231,33.1928 49.1009,38.7038 A8.8787,8.8787 0 0 1 32.2777,44.3876 T31.1303,41.7157 27.1675,35.5974 21.6384,29.6257 16.288,24.718 10.3152,19.5584 3.1344,13.5811 -3.1711,8.1668 -5.6318,5.9527 A8.1946,8.1946 0 0 1 5.6318,-5.9527 ZM42.7489,50.1823 T38.8752,51.1017 30.6819,52.2102 21.5652,51.8881 13.4568,50.3584 5.2038,47.4226 -3.0503,43.6737 -10.3432,39.4848 -14.3237,37.1274 A7.9061,7.9061 0 0 1 -7.1963,23.0126 T-2.9362,24.8164 6.2786,28.7688 14.9923,31.9936 22.381,33.7405 29.6058,34.3118 35.9152,33.5609 38.6297,32.9092 A8.8787,8.8787 0 0 1 42.7489,50.1823 Z" stroke-linecap="round" fill="#1d1d1d"/></g></g><g transform="matrix(1, 0, 0, 1, -4887.4758, 4760.3844)" opacity="1"><g transform="scale(1)"><path d="M-0.0743,6.9576 T-6.1427,6.5386 -22.0881,3.8744 -43.9441,-4.302 -68.8581,-19.4165 -95.5615,-40.0069 -122.5468,-63.9251 -147.724,-88.893 -169.7876,-112.5815 -187.6642,-133.3279 -201.1671,-151.0777 -210.9154,-166.2449 -217.5395,-179.031 -221.7158,-190.19 -224.2825,-200.1352 -225.9124,-209.0768 -226.9304,-217.7107 -226.9514,-227.1837 -224.4285,-238.7556 -218.4603,-252.7854 -209.9143,-268.6474 -199.9562,-285.2495 -189.2736,-301.5198 -178.2886,-316.7185 -167.1513,-331.2495 -155.3984,-345.9389 -142.5867,-360.5003 -128.9807,-374.2137 -114.9332,-386.9363 -100.503,-399.1121 -84.8614,-411.3832 -66.9423,-424.4855 -46.9725,-438.4539 -26.4055,-451.9966 -7.0945,-464.0899 9.6511,-474.4889 23.3859,-482.9044 34.4366,-489.7699 43.6381,-496.0391 51.7185,-501.9583 58.8752,-507.015 66.789,-512.1263 72.5305,-516.0944 73.6951,-517.1664 A6.1112,6.1112 0 0 1 80.6307,-507.1024 T78.7185,-506.054 72.0102,-502.8927 63.9743,-499.1016 56.7955,-494.7964 48.4015,-489.0278 38.8918,-482.6231 27.7813,-475.7179 14.0972,-467.3311 -2.6223,-456.9452 -21.7714,-444.953 -42.1334,-431.542 -61.9525,-417.6727 -79.6355,-404.7394 -95.0396,-392.6421 -109.236,-380.648 -122.9389,-368.2211 -136.1645,-354.8631 -148.6738,-340.5821 -160.2599,-325.9943 -171.1771,-311.6072 -181.8244,-296.6738 -192.153,-280.6378 -201.6802,-264.3133 -209.5467,-249.1734 -214.599,-236.7959 -216.64,-227.0675 -216.8671,-218.5675 -216.4399,-210.449 -215.5264,-202.1504 -213.6179,-193.1079 -209.9192,-182.9183 -203.6505,-170.8777 -194.2365,-156.3282 -180.9939,-139.0766 -163.2478,-118.6973 -141.2997,-95.4141 -116.3333,-71.0159 -89.6476,-47.8272 -63.6588,-28.302 -40.4298,-14.6616 -20.8103,-7.9586 -5.9798,-6.6681 0.0743,-6.9576 A6.958,6.958 0 0 1 -0.0743,6.9576 ZM76.1462,-506.1083 T73.5576,-506.3093 65.5736,-505.7359 56.5145,-504.42 49.1039,-503.2618 41.574,-502.2341 29.9952,-500.7699 16.0527,-499.2829 1.8094,-497.5326 -17.2643,-494.2276 -41.3133,-489.8151 -69.0016,-484.4073 -99.1403,-478.4136 -130.2018,-472.4447 -160.7742,-466.568 -189.9031,-460.6748 -217.0737,-454.4471 -242.3585,-447.6396 -266.2812,-439.9811 -288.9388,-430.9348 -309.7999,-420.6278 -328.6533,-409.7266 -345.128,-398.3505 -358.787,-386.1727 -370.1735,-372.8338 -380.0064,-357.998 -388.1953,-341.3449 -394.5703,-323.1016 -399.2525,-304.3288 -402.2713,-285.7181 -403.9877,-266.7146 -404.9462,-246.9532 -404.6876,-227.2438 -401.5966,-208.0556 -394.6476,-188.5722 -384.708,-168.3075 -373.1904,-148.2357 -360.7909,-129.6585 -347.9651,-112.9886 -335.1978,-98.2888 -323.2214,-85.7423 -312.5747,-75.0891 -303.1824,-65.7438 -295.0066,-57.4144 -288.0451,-50.0943 -282.3258,-43.7138 -276.6179,-35.4003 -269.5967,-25.9231 -265.758,-21.7909 A6.55,6.55 0 0 1 -275.062,-12.5691 T-276.8935,-14.569 -281.3812,-21.1324 -285.8591,-30.2204 -289.6833,-37.7135 -294.5381,-44.1542 -301.0634,-51.5024 -309.122,-59.7771 -318.5276,-69.1358 -329.3054,-79.9244 -341.5452,-92.7637 -354.6319,-107.8529 -367.7849,-124.9822 -380.4896,-144.0476 -392.2714,-164.6211 -402.5692,-185.8033 -409.8692,-206.7237 -413.0956,-227.1143 -413.356,-247.3626 -412.3714,-267.4811 -410.5775,-287.0659 -407.4191,-306.3661 -402.5078,-325.8924 -395.7314,-345.074 -387.015,-362.6587 -376.5731,-378.3063 -364.407,-392.445 -349.9457,-405.2816 -332.8987,-417.0468 -313.5645,-428.2245 -292.0997,-438.8255 -268.8945,-448.1105 -244.6048,-455.9278 -219.0241,-462.8762 -191.6557,-469.2387 -162.4708,-475.2675 -131.9384,-481.3069 -100.9953,-487.4864 -70.9033,-493.7919 -43.2376,-499.6343 -19.2756,-504.6262 0.0829,-508.7765 14.4204,-511.614 24.7136,-513.3747 36.0755,-515.0076 46.9218,-516.5899 54.5799,-517.902 65.0318,-519.1231 74.9289,-518.9447 78.1796,-518.1604 A6.1112,6.1112 0 0 1 76.1462,-506.1083 Z" stroke-linecap="round" fill="#1d1d1d"/></g></g><g transform="matrix(1, 0, 0, 1, -4577.8165, 4795.0397)" opacity="1"><g transform="scale(1)"><path d="M0,-6.8998 T4.9863,-6.6687 14.3151,-6.3723 22.6492,-6.3046 30.542,-6.4415 38.9282,-7.0147 49.2758,-8.3933 62.2463,-10.9447 77.7889,-14.7936 96.1406,-19.8726 116.5201,-25.871 136.9442,-32.6636 156.5122,-40.2092 175.929,-48.2461 195.7106,-56.6128 215.3383,-65.1258 234.0252,-73.6354 251.7391,-82.117 268.4288,-90.8591 283.6854,-100.3357 297.7707,-110.8943 310.5203,-122.3056 321.4764,-134.4099 330.8015,-147.0134 338.6822,-158.9419 345.0267,-169.1818 349.2505,-177.7174 351.441,-185.2311 352.5554,-192.788 352.9345,-201.3041 351.8101,-211.3471 347.9549,-223.6997 340.6796,-238.9053 329.9654,-256.21 315.3873,-274.814 295.9001,-294.7585 271.6292,-315.4039 243.637,-335.926 213.1713,-355.7931 181.9607,-373.9089 150.8633,-389.6829 120.6528,-403.2996 92.7708,-415.1525 67.6657,-426.1431 45.4145,-436.4997 25.95,-446.0114 8.5626,-454.9708 -7.056,-463.2016 -20.6751,-470.4596 -32.0951,-476.5874 -41.4346,-481.1565 -49.0892,-484.2181 -57.8698,-487.2538 -67.0806,-489.9467 -74.0599,-491.9916 -77.1466,-493.1597 A6.7838,6.7838 0 0 1 -71.3612,-505.432 T-69.132,-504.094 -62.89,-501.1821 -53.827,-497.0464 -45.2685,-492.7955 -37.5302,-488.9317 -28.1168,-484.0111 -16.71,-477.8917 -3.1289,-470.6561 12.426,-462.461 29.656,-453.5844 48.9778,-444.1465 71.0555,-433.8749 96.075,-422.9322 124.1248,-411.0183 154.6943,-397.2471 186.223,-381.2666 217.833,-362.9448 248.7145,-342.8436 277.236,-321.978 302.1581,-300.835 322.3551,-280.2534 337.6191,-260.955 349.0074,-242.8777 357.0449,-226.5058 361.6675,-212.4182 363.1318,-200.6624 362.4066,-190.8981 360.3926,-182.2252 357.0782,-173.7676 352.2076,-164.7508 345.7168,-154.2991 337.5752,-142.0021 327.7234,-128.758 316.1549,-116.0269 302.8364,-104.1332 288.1581,-93.153 272.3768,-83.348 255.4246,-74.4406 237.5808,-65.858 218.7745,-57.2395 199.1062,-48.6334 179.3061,-40.1552 159.7477,-31.9208 139.858,-24.0676 119.2231,-16.9437 98.8255,-10.5858 80.3982,-5.0054 64.6172,-0.4514 51.1079,3.0624 39.8911,5.2765 30.7738,6.148 22.6494,6.3046 14.3151,6.3723 4.9863,6.6687 0,6.8998 A6.8998,6.8998 0 0 1 0,-6.8998 ZM-74.8683,-506.0517 T-71.5617,-506.5638 -64.5132,-507.2743 -55.9653,-507.5526 -47.3536,-508.0752 -37.934,-509.1824 -25.2071,-510.1981 -10.0964,-510.6791 6.749,-510.8406 24.5791,-510.8622 41.923,-510.826 58.1987,-510.7708 73.7903,-510.7146 88.8767,-510.6647 103.4645,-510.1235 117.8414,-508.2509 132.3145,-505.0495 146.9511,-500.896 161.848,-495.8323 177.1553,-490.3173 192.8585,-484.9078 208.9316,-479.3948 225.2675,-473.4346 241.3859,-467.1358 256.6276,-460.7112 270.5365,-454.2719 283.2719,-447.8712 295.7123,-441.129 308.4689,-433.4478 321.7686,-424.8696 336.3899,-415.7068 352.2141,-406.1259 368.4007,-396.331 384.7249,-386.4561 400.6291,-376.6021 415.7851,-366.7904 429.9322,-357.1978 442.9226,-347.9924 455.4201,-338.6303 467.2028,-328.5755 477.6874,-318.1842 486.9278,-307.8625 494.9433,-297.3298 501.7051,-286.5967 507.4002,-275.8066 512.6372,-264.5752 517.907,-252.7938 523.3314,-240.2319 528.6492,-226.6556 533.3327,-212.7526 537.0076,-199.0166 539.4499,-184.943 540.8413,-169.5407 541.6193,-152.6656 541.5568,-134.8437 539.6304,-116.3104 535.6298,-98.0342 530.621,-81.148 525.3362,-65.8175 519.7585,-51.6078 513.5202,-37.5717 506.0582,-23.134 497.3583,-8.9145 488.0479,4.4265 478.5948,16.3883 469.3684,26.7338 460.5528,36.2486 451.2781,46.0438 440.3039,56.556 427.6806,67.5583 414.1233,78.7986 399.923,89.5385 385.338,98.9643 370.6456,107.1986 355.9228,114.6783 341.3837,121.0888 327.2478,125.9019 313.6722,129.6212 300.8691,132.7795 288.7522,135.483 277.4422,138.0101 267.2718,140.5654 258.0182,143.1369 249.1828,145.5266 240.5902,147.674 232.417,149.6667 225.1583,151.6468 218.5347,153.6107 209.1401,156.2214 198.966,158.7947 194.8773,159.7047 A6.2431,6.2431 0 0 1 192.0827,147.5353 T199.2489,145.9614 212.7071,143.1125 222.6218,141.031 230.2226,139.4921 238.4278,137.9514 246.9492,136.2895 255.7929,134.3915 265.2434,132.2063 275.6035,129.7946 286.9211,127.2658 298.858,124.6051 311.4564,121.4995 324.5597,117.9339 338.0057,113.3845 352.1136,107.1717 366.5369,99.8528 380.7825,91.8918 394.853,82.8241 408.75,72.3178 422.1486,61.2132 434.4727,50.4898 445.1619,40.2596 454.3777,30.5262 463.0959,21.121 472.0063,11.1564 481.1511,-0.3979 490.1861,-13.3124 498.5823,-26.9935 505.828,-40.9887 511.9256,-54.6888 517.3815,-68.5694 522.5558,-83.5553 527.4204,-99.8545 531.275,-117.1834 533.1434,-134.8744 533.2101,-152.2773 532.4608,-168.7771 531.1646,-183.5096 528.8775,-196.8547 525.3544,-210.0731 520.8132,-223.5836 515.6037,-236.8918 510.2217,-249.3564 505.007,-261.0188 499.9537,-271.8896 494.5755,-282.1321 488.241,-292.2513 480.6483,-302.261 471.7522,-312.2178 461.7328,-322.1875 450.3723,-331.8941 438.053,-341.1246 425.2034,-350.2328 411.2086,-359.7238 396.193,-369.4465 380.367,-379.2519 364.0416,-389.1272 347.8526,-398.9231 331.9122,-408.5764 317.2038,-417.7926 304.1294,-426.2329 291.7012,-433.723 279.4852,-440.3451 266.9893,-446.6282 253.3492,-452.9441 238.3153,-459.2785 222.3762,-465.5025 206.1931,-471.3987 190.105,-476.9036 174.2843,-482.3357 159.1206,-487.7776 144.6321,-492.6809 130.4716,-496.6689 116.7426,-499.6879 103.1663,-501.4002 88.8946,-501.8114 73.8227,-501.6978 58.2546,-501.5294 42.0184,-501.2769 24.7525,-500.8934 7.0992,-500.3039 -9.3382,-499.39 -23.4939,-497.9788 -35.6244,-495.6648 -46.2058,-493.2905 -55.8566,-492.4207 -64.1878,-492.5591 -70.7004,-492.5958 -73.6395,-492.5399 A6.7838,6.7838 0 0 1 -74.8683,-506.0517 Z" stroke-linecap="round" fill="#1d1d1d"/></g></g><g transform="matrix(1, 0, 0, 1, -4389.9233, 6085.7263)" opacity="1"><g transform="scale(1)"><path d="M6.7555,-1.9002 T7.8849,3.1966 12.0566,17.0252 19.5664,37.9374 29.1706,64.7047 39.4322,95.2542 49.0826,127.4215 57.2365,159.0531 63.3681,188.4641 67.3879,214.9341 69.7602,238.6765 71.0965,260.3843 71.8469,280.7459 72.2673,299.9216 72.5023,318.0931 72.9207,335.5668 73.7305,352.5745 74.4788,369.5379 74.9059,387.0079 75.1472,405.5089 75.2835,424.9404 75.3605,444.7758 75.1875,464.3769 73.6965,483.3229 69.4535,501.3044 62.343,517.7206 53.3826,532.5801 43.1774,546.9123 31.8502,561.4501 19.9748,575.7048 8.2594,589.2679 -2.8597,602.3537 -13.042,614.8177 -22.4329,626.363 -31.3865,637.0755 -39.7319,647.1095 -47.4389,656.4302 -54.7398,664.8153 -61.6863,672.2812 -68.4073,679.1269 -75.1027,685.351 -81.994,690.7227 -89.1151,695.0061 -96.7436,697.9956 -104.4625,699.8002 -114.2655,701.1501 -125.807,702.1837 -136.7486,702.6957 -148.1485,702.9556 -160.0644,703.0837 -172.5079,703.1236 -185.6897,701.9249 -198.3026,698.2734 -207.1181,693.9516 -215.0103,687.8088 -224.0666,679.2901 -231.8309,671.7803 -239.1896,665.5406 -246.9251,658.9536 -255.3095,651.4726 -264.4876,643.4106 -273.7839,635.8609 -281.7986,630.4152 -288.8426,626.9309 -296.2941,624.3236 -304.6923,621.6371 -312.8642,618.7979 -320.1188,615.919 -327.7838,612.698 -336.4303,609.3534 -346.1393,605.4773 -351.3147,603.236 A8.4781,8.4781 0 0 1 -343.5853,588.144 T-340.8717,589.6487 -334.1942,592.749 -325.813,595.8325 -317.2729,599.1251 -308.5343,602.9471 -299.5357,606.4631 -290.9,609.4101 -282.2051,612.8408 -273.5371,617.5546 -264.3908,623.9718 -254.5346,631.7921 -245.0013,639.8879 -236.7922,647.1952 -229.2888,653.7965 -221.3652,660.8451 -213.473,668.6692 -205.8202,676.141 -197.5389,682.1233 -188.5791,686.3158 -178.2919,688.2671 -166.2071,688.5752 -154.1803,688.6429 -142.5181,688.755 -131.4847,688.8961 -121.0113,688.9575 -109.5857,688.4459 -97.3558,686.138 -88.0031,682.4218 -81.5294,678.0274 -74.8789,672.4753 -68.067,666.1348 -61.1368,659.1637 -53.9252,651.0631 -46.2064,641.7284 -37.8452,631.6751 -28.9627,621.0486 -19.5635,609.4933 -9.2766,596.9038 1.8883,583.7637 13.5085,570.3139 25.2085,556.2771 36.3211,542.0286 46.1931,528.2155 54.6641,514.333 61.3091,499.324 65.3182,482.6326 66.7631,464.2977 66.9325,444.8093 66.8522,425.0009 66.7118,405.6214 66.466,387.2175 66.0361,369.9135 65.2765,352.9811 64.4431,335.7773 63.9984,318.2101 63.7325,300.117 63.2716,281.0723 62.4711,260.9264 61.0783,239.5534 58.6483,216.2717 54.5595,190.3206 48.3141,161.3921 39.9759,130.2174 30.0406,98.51 19.3372,68.3947 9.0515,41.9766 0.4012,20.8589 -5.0615,6.8408 -6.7555,1.9002 A7.0176,7.0176 0 0 1 6.7555,-1.9002 Z" stroke-linecap="round" fill="#1d1d1d"/></g></g></svg>